#!OML:ASF H:\Terrain\Patient Classification 1\Terrain2\Thursday\justin.ASF
:FULLY-SPECIFIED
:DEGREES
1649
root 31.1814 17.9044 20.2224 1454 -68.2813 343.591
lowerback 3.3915 -0.287882 2.39915
upperback 1.7707 -0.366459 3.90812
thorax -0.0712283 -0.214255 2.68229
lowerneck -12.6955 -4.45587 -10.3226
upperneck 37.6604 -7.44286 6.04522
head 16.2201 -4.21778 3.0497
rclavicle 3.21037e-014 1.03368e-014
rhumerus -28.033 -7.25904 -78.3123
rradius 35.2846
rwrist -16.388
rhand -24.6325 9.22336
rfingers 7.12502
rthumb 1.86648 -20.7482
lclavicle 3.21037e-014 1.03368e-014
lhumerus -35.0437 15.2017 81.175
lradius 23.4215
lwrist -4.82411
lhand -17.3078 22.8607
lfingers 7.12502
lthumb 8.9383 52.6514
rfemur -10.7679 16.1496 25.9059
rtibia 31.3724
rfoot -8.50816 35.7977
rtoes 33.6347
lfemur -7.60922 -11.9894 -6.40279
ltibia 30.7206
lfoot -14.0687 -16.4285
ltoes 16.6166
1650
root 31.1983 17.915 20.2727 1454.18 -68.7297 343.676
lowerback 3.31174 -0.43773 2.17019
upperback 1.66756 -0.571267 3.96021
thorax -0.124019 -0.318098 2.87154
lowerneck -12.6664 -4.48953 -10.3812
upperneck 37.7332 -7.46377 5.91787
head 16.2504 -4.26071 2.99952
rclavicle 2.6339e-014 -1.03368e-014
rhumerus -28.0813 -8.05262 -77.558
rradius 34.8612
rwrist -16.6214
rhand -24.9204 8.92451
rfingers 7.12502
rthumb 1.58843 -21.0493
lclavicle 2.6339e-014 -1.03368e-014
lhumerus -34.9243 15.0417 81.0509
lradius 23.5757
lwrist -5.70548
lhand -16.7715 22.869
lfingers 7.12502
lthumb 9.45586 52.6368
rfemur -11.2038 16.2649 25.6043
rtibia 31.5222
rfoot -8.92209 35.6876
rtoes 32.7911
lfemur -7.32116 -11.6536 -6.84135
ltibia 30.1101
lfoot -14.3372 -15.5167
ltoes 16.8419
1651
root 31.2212 17.9369 20.328 1453.28 -69.1364 345.053
lowerback 3.08429 -0.647751 1.5553
upperback 1.57182 -0.868536 3.8557
thorax -0.0781078 -0.46702 3.11649
lowerneck -12.694 -4.43676 -10.2303
upperneck 37.7431 -7.40731 5.82024
head 16.2405 -4.23365 2.93804
rclavicle 5.08143e-014 9.54166e-015
rhumerus -28.0745 -9.24796 -76.7123
rradius 34.4749
rwrist -16.0959
rhand -25.2348 8.48195
rfingers 7.12502
rthumb 1.28479 -21.4939
lclavicle 5.08143e-014 9.54166e-015
lhumerus -34.5672 14.7027 81.1552
lradius 23.6486
lwrist -5.18065
lhand -17.7939 22.968
lfingers 7.12502
lthumb 8.46919 52.7782
rfemur -11.7781 16.2643 24.6813
rtibia 31.8788
rfoot -10.2377 35.566
rtoes 31.0329
lfemur -7.12421 -11.4977 -7.76712
ltibia 29.2918
lfoot -14.3421 -14.7389
ltoes 18.3288
1652
root 31.2396 17.9503 20.3754 1453.15 -69.4465 345.492
lowerback 2.94479 -0.79375 1.22588
upperback 1.5034 -1.07229 3.84361
thorax -0.0559321 -0.569619 3.29387
lowerneck -12.7417 -4.38245 -9.96148
upperneck 37.7398 -7.37805 5.72905
head 16.2253 -4.19798 2.85352
rclavicle -6.37105e-014 1.82882e-014
rhumerus -28.0663 -11.3647 -75.6615
rradius 33.9488
rwrist -15.0151
rhand -25.4804 8.39479
rfingers 7.12502
rthumb 1.0476 -21.5824
lclavicle -6.37105e-014 1.82882e-014
lhumerus -34.1341 14.6432 81.1103
lradius 23.6504
lwrist -4.83606
lhand -18.4738 22.8869
lfingers 7.12502
lthumb 7.81305 52.7226
rfemur -12.217 16.4209 24.1866
rtibia 32.1112
rfoot -11.1449 35.4135
rtoes 29.5216
lfemur -6.94202 -11.2961 -8.29845
ltibia 28.623
lfoot -14.3924 -13.9961
ltoes 17.8898
1653
root 31.255 17.9514 20.4159 1453.63 -69.7791 345.146
lowerback 3.00673 -0.933691 1.15851
upperback 1.37682 -1.25206 3.81858
thorax -0.21105 -0.658078 3.31379
lowerneck -12.6332 -4.32293 -9.56446
upperneck 37.766 -7.41194 5.6381
head 16.1869 -4.17874 2.73769
rclavicle 5.4964e-014 9.14409e-015
rhumerus -28.3757 -12.6882 -74.9409
rradius 33.6088
rwrist -14.7509
rhand -25.5808 8.66518
rfingers 7.12502
rthumb 0.950637 -21.3124
lclavicle 5.4964e-014 9.14409e-015
lhumerus -34.0176 14.2868 80.8188
lradius 23.8513
lwrist -4.68559
lhand -18.2903 22.7962
lfingers 7.12502
lthumb 7.99016 52.6252
rfemur -12.4593 16.8119 24.0081
rtibia 32.2584
rfoot -11.7602 35.2747
rtoes 28.6444
lfemur -6.65385 -11.2491 -8.55352
ltibia 28.0523
lfoot -14.9392 -13.0353
ltoes 14.8675
1654
root 31.2758 17.9497 20.462 1453.55 -70.1294 345.362
lowerback 3.12189 -1.0815 0.960244
upperback 1.30306 -1.44605 3.7504
thorax -0.338673 -0.75387 3.36449
lowerneck -12.6529 -4.3309 -9.26758
upperneck 37.7963 -7.51271 5.57401
head 16.1975 -4.19333 2.63693
rclavicle -4.22417e-016 -3.61788e-014
rhumerus -28.6971 -12.8507 -74.4607
rradius 33.5268
rwrist -15.2919
rhand -25.7079 8.58672
rfingers 7.12502
rthumb 0.827907 -21.3914
lclavicle -4.22417e-016 -3.61788e-014
lhumerus -33.8918 13.7162 80.6406
lradius 24.1773
lwrist -4.43313
lhand -17.8778 22.7244
lfingers 7.12502
lthumb 8.38829 52.5378
rfemur -12.6377 16.9331 23.6102
rtibia 32.2094
rfoot -11.5734 35.4861
rtoes 28.9689
lfemur -6.45854 -11.3194 -8.98857
ltibia 27.7091
lfoot -15.5716 -12.2285
ltoes 13.2772
1655
root 31.296 17.949 20.5119 1453.68 -70.3119 345.409
lowerback 3.11592 -1.23931 0.866602
upperback 1.27222 -1.65842 3.76731
thorax -0.35287 -0.860409 3.4419
lowerneck -12.7178 -4.36645 -9.14075
upperneck 37.7608 -7.61342 5.58422
head 16.1991 -4.21683 2.59766
rclavicle -1.18277e-014 0
rhumerus -28.9452 -13.5404 -73.7888
rradius 33.5287
rwrist -15.3523
rhand -25.8871 8.00432
rfingers 7.12502
rthumb 0.65479 -21.9744
lclavicle -1.18277e-014 0
lhumerus -33.6183 13.2536 80.5807
lradius 24.4357
lwrist -4.38559
lhand -17.7521 22.6248
lfingers 7.12502
lthumb 8.50958 52.4334
rfemur -12.8527 16.8584 23.3408
rtibia 31.9945
rfoot -10.7535 35.7166
rtoes 29.7872
lfemur -6.50173 -11.4537 -9.21878
ltibia 27.6024
lfoot -15.9146 -12.0526
ltoes 13.644
1656
root 31.3149 17.9603 20.5574 1454.56 -70.3188 344.686
lowerback 3.09223 -1.42489 1.06831
upperback 1.16456 -1.89789 3.82695
thorax -0.441756 -0.979507 3.39896
lowerneck -12.6188 -4.35233 -9.15727
upperneck 37.7708 -7.70204 5.78459
head 16.2015 -4.23976 2.67347
rclavicle -3.50358e-014 1.55052e-014
rhumerus -29.3642 -14.5799 -73.1236
rradius 33.5905
rwrist -15.4184
rhand -26.2458 7.55143
rfingers 7.12502
rthumb 0.308346 -22.4281
lclavicle -3.50358e-014 1.55052e-014
lhumerus -33.4345 12.2476 80.6196
lradius 24.7531
lwrist -3.85659
lhand -18.1558 22.54
lfingers 7.12502
lthumb 8.12 52.364
rfemur -12.9576 17.0748 23.3621
rtibia 31.7251
rfoot -10.6868 35.5231
rtoes 29.6218
lfemur -6.72067 -11.7027 -9.03836
ltibia 27.6282
lfoot -15.7407 -12.4659
ltoes 16.7809
1657
root 31.3367 17.9708 20.5999 1454.7 -70.3608 344.766
lowerback 3.10592 -1.65119 0.93617
upperback 0.997471 -2.19602 3.87542
thorax -0.598832 -1.12722 3.53721
lowerneck -12.5095 -4.30381 -9.47349
upperneck 37.8652 -7.72072 6.12219
head 16.2632 -4.26332 2.87738
rclavicle -4.51987e-014 -1.51076e-014
rhumerus -29.8732 -15.2063 -72.4655
rradius 33.7722
rwrist -15.9778
rhand -26.8811 7.29819
rfingers 7.12502
rthumb -0.30528 -22.6813
lclavicle -4.51987e-014 -1.51076e-014
lhumerus -33.3389 11.5445 80.6325
lradius 25.0331
lwrist -3.37626
lhand -18.2184 22.5401
lfingers 7.12502
lthumb 8.0596 52.3664
rfemur -13.096 17.3489 23.0477
rtibia 31.5394
rfoot -10.8555 35.3354
rtoes 29.3317
lfemur -7.01994 -11.7305 -9.14828
ltibia 27.6814
lfoot -15.1852 -12.9271
ltoes 20.0249
1658
root 31.3604 17.9737 20.6426 1453.74 -70.5895 346.069
lowerback 3.10115 -1.94709 0.212939
upperback 0.828705 -2.60544 3.98291
thorax -0.709871 -1.33047 4.07355
lowerneck -12.51 -4.2082 -10.0357
upperneck 37.9408 -7.53942 6.37353
head 16.3276 -4.24598 3.12204
rclavicle 1.90088e-014 -1.23246e-014
rhumerus -30.1412 -15.51 -71.651
rradius 33.8326
rwrist -16.4602
rhand -26.7546 7.36448
rfingers 7.12502
rthumb -0.18306 -22.6152
lclavicle 1.90088e-014 -1.23246e-014
lhumerus -33.2619 11.9321 80.5087
lradius 25.1607
lwrist -3.49109
lhand -17.8981 22.582
lfingers 7.12502
lthumb 8.3687 52.3962
rfemur -13.4199 17.338 22.2147
rtibia 31.4677
rfoot -10.2925 35.5213
rtoes 30.1957
lfemur -7.36478 -11.5621 -9.78823
ltibia 27.7391
lfoot -15.063 -13.0601
ltoes 20.0053
1659
root 31.3862 17.9762 20.6762 1453.28 -70.7978 346.703
lowerback 3.2634 -2.16808 -0.404634
upperback 0.751372 -2.91548 4.18133
thorax -0.817301 -1.48529 4.64844
lowerneck -12.673 -4.19396 -10.3747
upperneck 38.0287 -7.41878 6.36502
head 16.4188 -4.24795 3.19848
rclavicle 3.40916e-014 4.92986e-014
rhumerus -30.3017 -16.0523 -70.7229
rradius 33.7612
rwrist -16.4308
rhand -26.0961 7.76139
rfingers 7.12502
rthumb 0.452947 -22.2179
lclavicle 3.40916e-014 4.92986e-014
lhumerus -32.9873 11.8134 80.5822
lradius 25.2792
lwrist -3.26363
lhand -18.1241 22.4203
lfingers 7.12502
lthumb 8.15058 52.2431
rfemur -13.6304 17.4312 21.6997
rtibia 31.4332
rfoot -9.64607 35.4926
rtoes 31.0816
lfemur -7.63324 -11.3378 -10.1483
ltibia 27.8542
lfoot -15.3347 -13.0967
ltoes 17.4186
1660
root 31.4096 17.9719 20.7061 1454.07 -70.8613 345.89
lowerback 3.49712 -2.24614 -0.402756
upperback 0.763733 -3.01901 4.35781
thorax -0.917107 -1.53865 4.84621
lowerneck -12.7735 -4.26289 -10.3592
upperneck 37.9624 -7.52411 6.38777
head 16.4229 -4.28233 3.18274
rclavicle -5.71506e-014 -1.27222e-014
rhumerus -30.6701 -16.7901 -69.9073
rradius 33.8543
rwrist -16.315
rhand -26.1806 7.80666
rfingers 7.12502
rthumb 0.371271 -22.1728
lclavicle -5.71506e-014 -1.27222e-014
lhumerus -32.5516 10.4684 80.9157
lradius 25.6095
lwrist -2.37583
lhand -18.7607 22.4839
lfingers 7.12502
lthumb 7.53615 52.3297
rfemur -13.7358 17.6349 21.819
rtibia 31.4407
rfoot -8.97051 35.3274
rtoes 31.7275
lfemur -7.77245 -11.0269 -9.87259
ltibia 27.9748
lfoot -15.3043 -13.6596
ltoes 17.3401
1661
root 31.4265 17.9583 20.7371 1456.08 -70.9424 343.806
lowerback 3.63089 -2.23393 0.12393
upperback 0.783963 -2.98552 4.49341
thorax -0.99363 -1.52472 4.69485
lowerneck -12.7084 -4.33738 -10.1028
upperneck 37.7198 -7.73218 6.47979
head 16.2953 -4.31497 3.13552
rclavicle -9.79014e-015 1.43125e-014
rhumerus -31.2366 -17.4726 -69.3587
rradius 34.0845
rwrist -16.5104
rhand -26.5317 7.25524
rfingers 7.12502
rthumb 0.0322124 -22.7245
lclavicle -9.79014e-015 1.43125e-014
lhumerus -32.048 9.42734 80.8909
lradius 25.8318
lwrist -2.24122
lhand -18.473 23.1559
lfingers 7.12502
lthumb 7.81384 52.9915
rfemur -13.9216 17.8193 22.4113
rtibia 31.5275
rfoot -7.89958 35.2567
rtoes 32.7581
lfemur -7.82564 -10.5641 -9.15564
ltibia 28.0058
lfoot -15.1197 -14.3681
ltoes 19.2454
1662
root 31.4511 17.9554 20.7751 1456 -71.278 344.091
lowerback 3.78529 -2.29915 -0.227551
upperback 0.658693 -3.07635 4.52695
thorax -1.18132 -1.56538 4.94411
lowerneck -12.6228 -4.31789 -10.0587
upperneck 37.6192 -7.71497 6.45971
head 16.2153 -4.30686 3.12041
rclavicle 1.20762e-014 0
rhumerus -31.8474 -17.547 -68.8724
rradius 34.4954
rwrist -17.1748
rhand -26.6824 6.81067
rfingers 7.12502
rthumb -0.113301 -23.169
lclavicle 1.20762e-014 0
lhumerus -31.5822 9.55322 80.5702
lradius 25.6732
lwrist -2.83623
lhand -17.6641 23.1137
lfingers 7.12502
lthumb 8.59453 52.9188
rfemur -14.26 17.9194 21.9935
rtibia 31.7119
rfoot -7.68584 35.2728
rtoes 32.5961
lfemur -7.98558 -10.0548 -9.46767
ltibia 27.9357
lfoot -15.0873 -14.5476
ltoes 18.2745
1663
root 31.49 17.9746 20.8302 1452.12 -71.8262 348.567
lowerback 3.85968 -2.43933 -1.70367
upperback 0.420499 -3.30624 4.26481
thorax -1.38035 -1.66225 5.52763
lowerneck -12.4999 -4.2459 -10.4105
upperneck 37.5621 -7.57529 6.59732
head 16.1654 -4.28744 3.26949
rclavicle 1.69961e-014 -1.74931e-014
rhumerus -32.3557 -17.07 -68.408
rradius 34.9616
rwrist -18.1097
rhand -27.2117 7.14579
rfingers 7.12502
rthumb -0.624528 -22.833
lclavicle 1.69961e-014 -1.74931e-014
lhumerus -31.3072 9.48505 80.5106
lradius 25.6985
lwrist -2.55823
lhand -17.8884 22.2747
lfingers 7.12502
lthumb 8.37801 52.0885
rfemur -14.836 17.7103 19.911
rtibia 31.9879
rfoot -8.24242 35.5777
rtoes 31.6961
lfemur -8.31935 -9.83273 -11.3149
ltibia 27.7859
lfoot -15.2369 -14.4267
ltoes 14.323
